<?xml version="1.0" standalone="no"?>
<!DOCTYPE svg PUBLIC "-//W3C//DTD SVG 20010904//EN"
 "http://www.w3.org/TR/2001/REC-SVG-20010904/DTD/svg10.dtd">
<svg version="1.0" xmlns="http://www.w3.org/2000/svg"
 width="779.000000pt" height="779.000000pt" viewBox="0 0 779.000000 779.000000"
 preserveAspectRatio="xMidYMid meet">
<metadata>
Created by potrace 1.14, written by Peter Selinger 2001-2017
</metadata>
<g transform="translate(0.000000,779.000000) scale(0.100000,-0.100000)"
fill="#000000" stroke="none">
<path d="M3816 7711 l-78 -78 -111 -7 c-62 -4 -138 -10 -170 -15 l-58 -8 -89
63 -90 63 -38 -52 c-21 -29 -50 -69 -63 -89 -23 -35 -30 -38 -144 -67 -66 -17
-141 -37 -167 -45 -46 -15 -47 -14 -126 23 -128 63 -115 67 -167 -47 l-46 -99
-57 -23 c-31 -13 -100 -45 -153 -71 l-97 -48 -107 28 c-74 20 -108 26 -110 18
-2 -7 -15 -55 -29 -107 -15 -56 -32 -99 -42 -105 -9 -5 -73 -50 -142 -98
l-124 -88 -106 10 c-59 5 -107 9 -108 8 -1 -1 -6 -49 -12 -108 l-10 -105 -122
-123 -122 -123 -107 -10 c-58 -6 -107 -11 -108 -12 -1 -1 3 -49 8 -108 l10
-106 -88 -124 c-48 -69 -92 -133 -98 -142 -6 -10 -49 -27 -105 -42 -52 -14
-100 -27 -107 -29 -8 -2 -2 -36 18 -110 l28 -107 -48 -97 c-26 -53 -58 -122
-71 -153 l-23 -57 -99 -46 c-114 -52 -110 -39 -47 -167 37 -79 38 -80 23 -126
-8 -26 -28 -101 -45 -167 l-31 -120 -80 -55 c-44 -30 -85 -58 -90 -61 -6 -4
17 -46 54 -98 l65 -91 -8 -58 c-5 -31 -11 -106 -15 -167 l-6 -110 -79 -80 -79
-80 79 -79 78 -78 7 -111 c4 -62 10 -138 15 -169 l8 -58 -65 -91 c-37 -52 -60
-94 -54 -98 5 -3 46 -31 90 -61 l80 -55 31 -120 c17 -66 37 -141 45 -167 15
-46 14 -47 -23 -126 -63 -128 -67 -115 47 -167 l99 -46 23 -57 c13 -31 45
-100 71 -153 l48 -97 -28 -107 c-20 -74 -26 -108 -18 -110 7 -2 55 -15 107
-29 56 -15 99 -32 105 -42 6 -9 50 -73 98 -142 l88 -124 -10 -106 c-5 -59 -9
-107 -8 -108 1 -1 50 -6 108 -12 l107 -10 122 -123 122 -123 10 -105 c6 -59
11 -107 12 -108 1 -1 49 3 108 8 l106 10 124 -88 c69 -48 133 -92 142 -98 10
-6 27 -49 42 -105 14 -52 27 -100 29 -107 2 -8 36 -2 110 18 l107 28 97 -48
c53 -26 122 -58 153 -71 l57 -23 46 -99 c52 -114 39 -110 167 -47 79 37 80 38
126 23 26 -8 101 -28 167 -45 l120 -31 55 -80 c30 -44 58 -85 61 -90 4 -6 46
17 98 54 l91 65 58 -8 c31 -5 107 -11 169 -15 l111 -7 78 -78 79 -79 80 79 80
79 110 6 c61 4 136 10 167 15 l58 8 91 -65 c52 -37 94 -60 98 -54 3 5 31 46
61 90 l55 80 120 31 c66 17 141 37 167 45 46 15 47 14 126 -23 128 -63 115
-67 167 47 l46 99 57 23 c31 13 100 45 153 71 l97 48 107 -28 c74 -20 108 -26
110 -18 2 7 15 55 29 107 15 57 32 99 42 105 9 6 73 50 142 98 l124 89 106
-10 c59 -6 107 -10 108 -9 1 1 6 50 12 108 l10 106 122 123 123 122 106 10
c58 6 107 11 108 12 1 1 -3 49 -9 108 l-10 106 89 124 c48 69 93 133 98 142 6
10 47 27 105 42 52 14 100 27 106 29 8 2 3 37 -17 108 l-28 105 63 134 c35 73
66 142 70 154 4 15 38 36 106 68 55 26 100 50 100 53 0 3 -20 48 -44 99 l-45
94 28 97 c15 54 36 130 45 168 16 66 20 72 69 105 28 19 68 47 89 62 l38 28
-63 89 -63 89 13 114 c6 62 12 138 13 168 l0 55 80 80 80 80 -80 80 c-78 79
-80 82 -81 130 0 28 -6 103 -12 169 l-13 118 63 89 63 89 -38 28 c-21 15 -61
43 -89 62 -49 33 -53 39 -69 105 -9 39 -30 113 -45 167 l-29 96 46 97 c25 53
44 99 41 102 -3 3 -47 25 -98 49 l-93 43 -46 103 c-26 57 -59 126 -73 155
l-27 52 29 106 28 105 -53 15 c-177 50 -157 39 -209 118 -26 40 -70 102 -97
139 l-50 68 10 107 c5 60 9 109 8 110 0 0 -49 5 -107 10 l-107 10 -122 123
-123 122 -10 107 c-5 58 -10 107 -10 107 -1 1 -50 -3 -110 -8 l-107 -10 -68
50 c-37 27 -99 71 -139 97 -78 51 -76 48 -113 195 -6 25 -13 50 -15 56 -2 8
-37 2 -110 -17 l-106 -29 -52 27 c-29 14 -98 47 -155 73 l-103 46 -42 91 c-23
51 -45 95 -49 98 -4 4 -50 -14 -103 -39 l-97 -46 -96 29 c-54 15 -128 36 -167
45 -66 16 -72 20 -105 69 -19 28 -47 68 -62 89 l-28 38 -89 -64 -90 -63 -58 8
c-32 5 -107 11 -168 15 l-110 6 -80 79 -80 79 -79 -79z m339 -151 c72 -5 158
-13 192 -16 l63 -7 73 51 73 51 44 -65 c24 -36 49 -69 56 -75 7 -5 56 -21 110
-34 55 -13 137 -35 183 -49 l84 -25 81 38 82 38 38 -82 c36 -80 38 -82 94
-105 31 -13 110 -50 175 -82 l118 -59 87 25 88 24 23 -89 c22 -85 25 -89 66
-113 23 -14 95 -63 159 -110 l117 -86 62 6 c34 3 74 7 89 9 l27 4 6 -88 7 -89
142 -140 141 -140 87 -7 87 -7 -4 -26 c-2 -15 -6 -55 -9 -88 l-5 -61 85 -119
c47 -66 97 -138 110 -160 23 -40 29 -43 113 -65 l89 -23 -24 -88 -25 -87 59
-118 c32 -65 69 -144 82 -175 23 -56 25 -58 105 -94 l82 -38 -38 -82 -38 -82
20 -63 c11 -35 33 -117 49 -183 16 -65 34 -124 39 -130 6 -7 39 -32 75 -56
l65 -44 -51 -73 -51 -74 11 -117 c7 -64 15 -151 18 -193 l6 -77 64 -63 64 -63
-64 -66 -64 -65 -6 -75 c-4 -41 -12 -128 -18 -192 l-11 -117 51 -74 51 -73
-65 -44 c-36 -24 -69 -49 -75 -56 -5 -7 -21 -56 -34 -110 -13 -55 -35 -137
-49 -183 l-25 -84 38 -81 38 -82 -82 -38 c-80 -36 -82 -38 -105 -94 -13 -31
-50 -110 -82 -175 l-59 -118 25 -87 24 -88 -89 -23 c-85 -22 -89 -25 -113 -66
-14 -23 -64 -95 -111 -159 l-85 -118 5 -66 c4 -37 8 -77 11 -89 4 -20 -1 -22
-84 -28 l-87 -7 -141 -140 -142 -140 -7 -89 c-6 -84 -8 -89 -28 -85 -12 3 -52
7 -89 11 l-67 5 -83 -61 c-45 -33 -117 -84 -159 -111 l-77 -50 -21 -77 c-12
-43 -21 -82 -21 -88 0 -7 -34 -2 -89 13 l-90 25 -108 -54 c-59 -29 -138 -66
-174 -81 l-67 -28 -38 -82 -39 -82 -81 38 -81 38 -84 -26 c-46 -14 -128 -36
-181 -49 -54 -13 -102 -26 -107 -30 -6 -3 -32 -36 -58 -74 l-49 -69 -69 50
-70 50 -70 -6 c-38 -3 -128 -11 -198 -17 l-129 -10 -57 -60 c-32 -32 -61 -59
-65 -59 -4 0 -33 27 -66 59 -58 59 -58 59 -132 65 -40 4 -128 12 -196 18
l-122 11 -73 -50 -72 -51 -44 64 c-25 36 -50 69 -57 75 -7 5 -56 21 -110 34
-55 13 -137 35 -183 49 l-84 26 -81 -38 -81 -38 -39 82 -38 82 -67 28 c-36 15
-115 52 -174 81 l-108 54 -90 -25 c-55 -15 -89 -20 -89 -13 0 6 -9 45 -21 88
l-21 77 -77 50 c-42 27 -114 77 -159 111 l-82 61 -89 -8 -89 -8 -7 86 -7 85
-140 142 -141 141 -86 7 -87 7 8 89 8 89 -61 82 c-34 45 -84 117 -111 159
l-50 77 -77 21 c-43 12 -82 21 -88 21 -7 0 -2 34 13 89 l25 90 -54 108 c-29
59 -66 138 -81 174 l-28 67 -82 38 -82 39 38 81 38 81 -26 84 c-14 46 -36 128
-49 183 -13 54 -29 103 -34 110 -6 7 -39 32 -75 57 l-64 44 51 72 50 73 -11
122 c-6 68 -14 156 -18 197 l-6 74 -62 61 -62 61 62 63 62 62 6 73 c4 39 12
127 18 195 l11 122 -50 73 -51 72 64 44 c36 25 69 50 75 57 5 7 21 56 34 110
13 55 35 137 49 183 l26 84 -38 81 -38 81 82 39 82 38 28 67 c15 36 52 115 81
174 l54 108 -25 90 c-15 55 -20 89 -13 89 6 0 45 9 88 21 l77 21 50 77 c27 42
77 114 111 159 l61 82 -8 89 -8 89 86 7 85 7 142 140 141 141 7 86 7 87 89 -8
89 -8 80 59 c43 32 115 82 159 111 l79 51 21 78 c12 42 21 82 21 88 0 7 34 2
89 -13 l90 -25 108 54 c59 29 138 66 174 81 l67 28 38 82 39 82 81 -38 81 -38
84 26 c46 14 128 36 183 49 54 13 103 29 110 34 7 6 32 39 57 75 l44 64 72
-51 72 -50 118 11 c65 6 152 14 194 18 l76 6 64 63 64 64 65 -64 65 -64 130
-11z"/>
<path d="M3670 7524 c-19 -2 -87 -9 -150 -15 -658 -62 -1324 -330 -1860 -748
-880 -685 -1400 -1750 -1400 -2866 0 -1116 520 -2181 1400 -2866 710 -553
1622 -829 2506 -759 891 71 1697 446 2322 1080 727 736 1111 1784 1032 2811
-82 1057 -606 2012 -1452 2647 -504 378 -1104 616 -1758 698 -110 14 -567 27
-640 18z m540 -74 c698 -63 1368 -333 1925 -776 141 -112 425 -397 539 -539
372 -465 623 -1014 730 -1597 76 -409 76 -877 0 -1286 -109 -596 -366 -1148
-751 -1621 -111 -136 -358 -383 -494 -494 -523 -427 -1141 -692 -1824 -784
-185 -25 -695 -25 -880 0 -683 92 -1301 357 -1824 784 -136 111 -383 358 -494
494 -427 523 -692 1141 -784 1824 -25 185 -25 695 0 880 92 683 357 1301 784
1824 111 136 358 383 494 494 555 452 1225 727 1940 796 124 12 507 12 639 1z"/>
<path d="M3720 7333 c-957 -52 -1845 -493 -2459 -1223 -380 -452 -638 -996
-750 -1580 -75 -395 -75 -875 0 -1270 202 -1056 880 -1958 1832 -2436 295
-149 598 -252 917 -313 395 -75 875 -75 1270 0 1163 222 2129 1019 2563 2115
355 896 320 1891 -97 2759 -174 362 -379 649 -670 941 -300 300 -580 498 -958
678 -507 242 -1094 359 -1648 329z m528 -469 c354 -42 644 -129 977 -294 714
-352 1260 -979 1509 -1735 214 -645 201 -1334 -35 -1980 -55 -150 -203 -447
-289 -578 -306 -470 -701 -820 -1195 -1062 -437 -214 -838 -308 -1320 -308
-482 0 -883 94 -1320 308 -324 158 -564 332 -822 596 -235 241 -390 460 -538
764 -214 437 -307 837 -307 1320 -1 481 93 883 307 1320 177 362 405 661 715
934 621 549 1485 816 2318 715z"/>
<path d="M4107 5649 l-517 -511 0 -857 0 -856 -323 -325 c-177 -179 -328 -333
-336 -343 -13 -16 -6 -17 112 -17 l125 0 426 426 426 426 0 857 0 856 215 215
215 215 215 -215 215 -215 0 -425 0 -425 -215 -215 -215 -215 0 255 0 255 -85
-85 -85 -85 0 -470 0 -470 -87 -87 -88 -88 88 0 87 0 0 -125 0 -125 -213 0
-212 0 -90 -90 -90 -90 303 0 302 0 0 -422 0 -423 -258 258 -257 257 -556 0
-556 0 -84 -88 -83 -87 428 -3 429 -2 425 -426 c233 -233 427 -422 431 -419 3
3 255 254 558 558 l553 552 0 595 0 595 -215 215 -215 215 215 215 215 215 0
425 0 425 -343 343 -343 343 -517 -512z m773 -2136 l0 -83 -215 0 -215 0 0
297 0 297 215 -215 215 -214 0 -82z m0 -388 l0 -125 -215 0 -215 0 0 125 0
125 215 0 215 0 0 -125z m0 -513 l0 -207 -215 -215 -215 -215 0 423 0 422 215
0 215 0 0 -208z"/>
<path d="M4110 5995 l-85 -85 -640 0 -640 0 -218 -218 -218 -218 3 -83 3 -83
86 86 87 86 553 0 554 0 -428 -428 -427 -427 0 -215 0 -215 -212 -212 -213
-213 213 0 212 0 0 -428 0 -427 -215 -215 -215 -215 0 -90 0 -90 430 430 430
430 0 855 0 855 602 602 603 603 -90 0 -90 0 -85 -85z"/>
</g>
</svg>
